<?xml version="1.0" encoding="UTF-8" standalone="no"?>
<svg
   xmlns:dc="http://purl.org/dc/elements/1.1/"
   xmlns:cc="http://creativecommons.org/ns#"
   xmlns:rdf="http://www.w3.org/1999/02/22-rdf-syntax-ns#"
   xmlns:svg="http://www.w3.org/2000/svg"
   xmlns="http://www.w3.org/2000/svg"
   xmlns:xlink="http://www.w3.org/1999/xlink"
   xmlns:sodipodi="http://sodipodi.sourceforge.net/DTD/sodipodi-0.dtd"
   xmlns:inkscape="http://www.inkscape.org/namespaces/inkscape"
   inkscape:version="1.0 (4035a4fb49, 2020-05-01)"
   sodipodi:docname="harbour-wunderfitz3.svg"
   id="svg17"
   xml:space="preserve"
   enable-background="new 0 0 86 86"
   viewBox="0 0 86 86"
   height="86px"
   width="86px"
   y="0px"
   x="0px"
   version="1.1"><metadata
   id="metadata23"><rdf:RDF><cc:Work
       rdf:about=""><dc:format>image/svg+xml</dc:format><dc:type
         rdf:resource="http://purl.org/dc/dcmitype/StillImage" /><dc:title></dc:title><dc:creator><cc:Agent><dc:title>Mirian Margiani</dc:title></cc:Agent></dc:creator><dc:rights><cc:Agent><dc:title /></cc:Agent></dc:rights><cc:license
         rdf:resource="http://creativecommons.org/licenses/by-sa/4.0/" /></cc:Work><cc:License
       rdf:about="http://creativecommons.org/licenses/by-sa/4.0/"><cc:permits
         rdf:resource="http://creativecommons.org/ns#Reproduction" /><cc:permits
         rdf:resource="http://creativecommons.org/ns#Distribution" /><cc:requires
         rdf:resource="http://creativecommons.org/ns#Notice" /><cc:requires
         rdf:resource="http://creativecommons.org/ns#Attribution" /><cc:permits
         rdf:resource="http://creativecommons.org/ns#DerivativeWorks" /><cc:requires
         rdf:resource="http://creativecommons.org/ns#ShareAlike" /></cc:License></rdf:RDF></metadata><defs
   id="defs21"><inkscape:path-effect
     effect="perspective-envelope"
     up_left_point="35.685228,35.54557"
     up_right_point="57.273372,33.629355"
     down_left_point="35.685228,52.787932"
     down_right_point="57.273372,49.749293"
     id="path-effect1213"
     is_visible="true"
     lpeversion="1"
     deform_type="perspective"
     horizontal_mirror="false"
     vertical_mirror="false"
     overflow_perspective="false" /><inkscape:path-effect
     effect="bspline"
     id="path-effect1121"
     is_visible="true"
     lpeversion="1"
     weight="33.333333"
     steps="2"
     helper_size="0"
     apply_no_weight="true"
     apply_with_weight="true"
     only_selected="false" /><inkscape:path-effect
     effect="bspline"
     id="path-effect961"
     is_visible="true"
     lpeversion="1"
     weight="33.333333"
     steps="2"
     helper_size="0"
     apply_no_weight="true"
     apply_with_weight="true"
     only_selected="false" /><linearGradient
     id="linearGradient957"
     inkscape:collect="always"><stop
       id="stop953"
       offset="0"
       style="stop-color:#096777;stop-opacity:1" /><stop
       id="stop955"
       offset="1"
       style="stop-color:#0e98b1;stop-opacity:1" /></linearGradient><inkscape:path-effect
     effect="bspline"
     id="path-effect941"
     is_visible="true"
     lpeversion="1"
     weight="33.333333"
     steps="2"
     helper_size="0"
     apply_no_weight="true"
     apply_with_weight="true"
     only_selected="false" /><inkscape:path-effect
     only_selected="false"
     apply_with_weight="true"
     apply_no_weight="true"
     helper_size="0"
     steps="2"
     weight="33.333333"
     lpeversion="1"
     is_visible="true"
     id="path-effect1110"
     effect="bspline" /><inkscape:path-effect
     only_selected="false"
     apply_with_weight="true"
     apply_no_weight="true"
     helper_size="0"
     steps="2"
     weight="33.333333"
     lpeversion="1"
     is_visible="true"
     id="path-effect1089"
     effect="bspline" /><inkscape:path-effect
     only_selected="false"
     apply_with_weight="true"
     apply_no_weight="true"
     helper_size="0"
     steps="2"
     weight="33.333333"
     lpeversion="1"
     is_visible="true"
     id="path-effect1069"
     effect="bspline" /><inkscape:path-effect
     only_selected="false"
     apply_with_weight="true"
     apply_no_weight="true"
     helper_size="0"
     steps="2"
     weight="33.333333"
     lpeversion="1"
     is_visible="true"
     id="path-effect1049"
     effect="bspline" /><inkscape:path-effect
     only_selected="false"
     apply_with_weight="true"
     apply_no_weight="true"
     helper_size="0"
     steps="2"
     weight="33.333333"
     lpeversion="1"
     is_visible="true"
     id="path-effect1036"
     effect="bspline" /><linearGradient
     inkscape:collect="always"
     id="linearGradient1084"><stop
       style="stop-color:#045a6a;stop-opacity:1"
       offset="0"
       id="stop1080" /><stop
       style="stop-color:#0e98b1;stop-opacity:1"
       offset="1"
       id="stop1082" /></linearGradient><linearGradient
     y2="12.8067"
     x2="73.1934"
     y1="73.1937"
     x1="12.8064"
     gradientUnits="userSpaceOnUse"
     id="SVGID_1_"
     gradientTransform="translate(-102.19,-56.947895)">
		<stop
   id="stop3"
   style="stop-color:#005767;stop-opacity:1"
   offset="0" />
		<stop
   id="stop5"
   style="stop-color:#a6d2da;stop-opacity:1"
   offset="1" />
	</linearGradient><linearGradient
     inkscape:collect="always"
     xlink:href="#linearGradient957"
     id="linearGradient951"
     x1="26.061954"
     y1="42.781189"
     x2="31.679653"
     y2="42.781189"
     gradientUnits="userSpaceOnUse"
     gradientTransform="translate(0.26623438)" /><linearGradient
     inkscape:collect="always"
     xlink:href="#linearGradient1084"
     id="linearGradient969"
     x1="26.023399"
     y1="77.944397"
     x2="41.190025"
     y2="43.288368"
     gradientUnits="userSpaceOnUse" /><filter
     inkscape:collect="always"
     style="color-interpolation-filters:sRGB"
     id="filter1103"
     x="-0.081549112"
     width="1.1630982"
     y="-0.51737313"
     height="2.0347463"><feGaussianBlur
       inkscape:collect="always"
       stdDeviation="1.1213142"
       id="feGaussianBlur1105" /></filter><linearGradient
     gradientTransform="translate(-102.19,-56.947897)"
     id="SVGID_1_-3"
     gradientUnits="userSpaceOnUse"
     x1="12.8064"
     y1="73.193703"
     x2="73.193398"
     y2="12.8067"><stop
       offset="0"
       style="stop-color:#064551;stop-opacity:1"
       id="stop3-6" /><stop
       offset="1"
       style="stop-color:#a4dbe6;stop-opacity:1"
       id="stop5-7" /></linearGradient></defs><sodipodi:namedview
   inkscape:snap-global="true"
   pagecolor="#ffffff"
   bordercolor="#666666"
   borderopacity="1"
   objecttolerance="10"
   gridtolerance="10"
   guidetolerance="10"
   inkscape:pageopacity="0"
   inkscape:pageshadow="2"
   inkscape:window-width="1920"
   inkscape:window-height="1009"
   id="namedview19"
   showgrid="false"
   inkscape:zoom="9.4883721"
   inkscape:cx="43"
   inkscape:cy="43"
   inkscape:window-x="0"
   inkscape:window-y="0"
   inkscape:window-maximized="1"
   inkscape:current-layer="layer1"
   inkscape:document-rotation="0" />
<g
   id="Layer_2"
   display="none">
</g>

<g
   inkscape:groupmode="layer"
   id="layer1"
   inkscape:label="content"
   style="display:inline"><circle
     transform="matrix(-0.52607102,-0.85044064,-0.85044064,0.52607102,0,0)"
     cx="-59.190002"
     cy="-13.947893"
     r="42.700001"
     id="circle8-5"
     style="display:inline;fill:url(#SVGID_1_-3)" /><ellipse
     style="fill:url(#SVGID_1_)"
     id="circle8"
     cy="-13.947893"
     cx="-59.190002"
     transform="matrix(-0.52607102,-0.85044064,-0.85044064,0.52607102,0,0)"
     r="42.700001" /><circle
     cx="43"
     cy="43"
     r="32.025002"
     id="circle10"
     style="opacity:0.9;fill:#e9f5f5;fill-opacity:1" /><path
     style="fill:url(#linearGradient969);fill-opacity:1;fill-rule:evenodd;stroke:none;stroke-width:0.0933093;stroke-linecap:butt;stroke-linejoin:miter;stroke-miterlimit:4;stroke-dasharray:none;stroke-opacity:1;filter:url(#filter1103)"
     d="m 59.87787,58.472235 c 1.31e-4,0.185683 3.92e-4,0.557711 0.01516,1.200461 0.01476,0.642751 0.044,1.55581 -0.01363,2.057576 -0.05763,0.501766 -0.202334,0.593525 -0.513832,0.65626 -0.311497,0.06273 -0.790309,0.09633 -5.685186,0.32694 -4.894877,0.230615 -14.204118,0.658154 -19.172302,0.756913 -4.968183,0.09876 -5.592846,-0.131825 -6.122371,-0.416444 -0.529526,-0.28462 -0.963758,-0.623632 -1.191566,-0.948577 -0.227807,-0.324944 -0.248194,-0.635971 -0.25809,-0.831325 -0.0099,-0.195354 -0.0092,-0.275885 -0.0086,-0.355494 -6.67e-4,-0.305497 -0.0013,-0.610058 -0.01308,-1.039846 -0.01175,-0.429789 -0.03476,-0.987153 5.456983,-1.273555 5.491747,-0.286402 16.539318,-0.302554 22.022833,-0.310572 5.483515,-0.008 5.483515,-0.008 5.483645,0.177663 z"
     id="path959"
     sodipodi:nodetypes="caccccccccccc"
     transform="matrix(1.0176112,0,0,0.99107662,-0.20289062,0.22888959)"
     inkscape:original-d="m 59.87774,58.286553 c 0.0012,0.371364 -0.0053,0.743397 7.83e-4,1.115017 0.03022,0.913846 0.05946,1.826905 0.08771,2.738852 -0.143734,0.09278 -0.288434,0.18454 -0.434148,0.27531 -0.477944,0.03461 -0.956756,0.0682 -1.436626,0.100784 -9.309911,0.428623 -18.619152,0.856162 -27.931991,1.282811 -0.623767,-0.229665 -1.24843,-0.460249 -1.874063,-0.691779 -0.433326,-0.3381 -0.867558,-0.677112 -1.302752,-1.017079 -0.01946,-0.310106 -0.03984,-0.621133 -0.06116,-0.933096 0.0016,-0.07868 0.002,-0.238828 0.002,-0.238828 0,0 -3.47e-4,-0.61006 -0.002,-0.91649 -0.02201,-0.553179 -0.04496,-1.110546 -0.06883,-1.66722 11.006477,-0.01508 22.054048,-0.03124 33.021077,-0.04828 z"
     inkscape:path-effect="#path-effect961" /><path
     inkscape:path-effect="#path-effect1089"
     inkscape:original-d="m 56.480922,20.856502 c 0.07088,0.103482 0.140766,0.205963 0.209649,0.307445 0.001,0.153959 0.001,0.306911 0,0.458866 -0.109125,0.119597 -0.330369,0.355782 -0.330369,0.355782 l -0.854744,-0.543212 c 0,0 -0.273063,-0.06346 -0.411094,-0.09668 -0.716955,0.05506 -1.439116,0.109111 -2.160173,0.162166 -8.423179,0.728705 -16.84702,1.456381 -25.27203,2.183071 -0.210863,0.07501 -0.422698,0.149 -0.635574,0.22201 -0.07252,0.0883 -0.146023,0.175573 -0.220543,0.26187 -0.0058,0.136902 -0.01262,0.27278 -0.02042,0.407674 0.07352,0.233348 0.146037,0.465682 0.217557,0.697029 0.393125,0.262361 0.785226,0.523707 1.176351,0.784068 0.422787,0.144817 0.84455,0.288625 1.265337,0.431441 0.348507,0.06401 0.695994,0.127016 1.042501,0.189026 0.359496,0.03299 0.717969,0.06498 1.075468,0.09598 0.176394,-0.02633 0.351779,-0.05365 0.526168,-0.08198 0.592706,-0.05868 1.184388,-0.118347 1.775081,-0.179021 9.155423,-0.814432 18.309659,-1.629848 27.463186,-2.446289 0.145638,0.0052 0.29027,0.0094 0.433909,0.01266 0.06556,0.2205 0.130118,0.439996 0.19368,0.658507 -0.06793,0.527503 -0.136848,1.053953 -0.206774,1.579445 -0.01417,0.691767 -0.02934,1.3825 -0.04551,2.072264 0.01126,9.28523 0.02155,18.600213 0.03077,27.8523 0.0013,0.397993 -0.0086,0.796759 8.39e-4,1.19497 0.03233,0.66917 0.06366,1.337343 0.094,2.00451 -0.154092,0.09935 -0.309182,0.197699 -0.465278,0.295051 -0.512222,0.037 -1.025426,0.07301 -1.539639,0.108011 -9.16017,0.827348 -18.320974,1.653663 -27.48296,2.478994 -0.258236,-0.0014 -0.517461,-0.0038 -0.777692,-0.0071 -0.557077,-0.05447 -1.115121,-0.10993 -1.674198,-0.166396 -0.668494,-0.246133 -1.337949,-0.493251 -2.008443,-0.741383 -0.464397,-0.362343 -0.929766,-0.725664 -1.396165,-1.090008 -0.02085,-0.332342 -0.0427,-0.665671 -0.06555,-1.000004 0.0017,-0.08432 0.0021,-0.255953 0.0021,-0.255953 0,0 -3.71e-4,-0.653804 -0.0021,-0.982206 -0.02359,-0.592845 -0.04818,-1.190178 -0.07376,-1.786768 -0.006,-10.284557 -0.01305,-20.569447 -0.02107,-30.856054 0.0041,-0.530638 0.0072,-1.062248 0.0094,-1.594872 0.269734,-0.143554 0.538457,-0.288101 0.8062,-0.43366 0.183381,-0.02769 0.365749,-0.05638 0.547124,-0.08607 0.593684,-0.05577 1.186344,-0.112544 1.778017,-0.170316 8.715702,-0.771148 17.430056,-1.546375 26.143584,-2.321062 0.208778,-0.0037 0.419658,-0.0083 0.627987,-0.01399 0.08275,0.0143 0.164491,0.0276 0.245236,0.0399 z"
     sodipodi:nodetypes="scccccccccccccccccccccccacccccccccccccccccccss"
     id="path1087"
     d="m 56.516255,20.908316 c 0.03533,0.05182 0.105216,0.154297 0.139766,0.281944 0.03455,0.127646 0.03455,0.280598 -0.02053,0.415893 -0.05508,0.135295 -0.165165,0.253848 -0.275288,0.372442 0,0 -0.854744,-0.543212 -0.854744,-0.543212 -0.137031,-0.03223 -0.272894,-0.06418 -0.700518,-0.05352 -0.427623,0.01066 -1.149772,0.06488 -5.721897,0.455752 -4.572124,0.390876 -12.995965,1.118551 -17.314066,1.519337 -4.318101,0.400786 -4.529934,0.474781 -4.672962,0.555582 -0.143027,0.0808 -0.216529,0.168076 -0.256677,0.280103 -0.04015,0.112027 -0.04696,0.247906 -0.01389,0.432151 0.03307,0.184244 0.105583,0.416579 0.338296,0.66322 0.232713,0.24664 0.624814,0.507986 1.031794,0.710395 0.406979,0.202409 0.828742,0.346217 1.213361,0.449529 0.384618,0.103312 0.732105,0.166318 1.085074,0.213765 0.35297,0.04745 0.711443,0.07944 0.978262,0.08166 0.266819,0.0022 0.442203,-0.0251 0.825784,-0.06859 0.383581,-0.04348 0.975262,-0.103154 5.848327,-0.540702 4.873065,-0.437549 14.027301,-1.252964 18.676945,-1.65852 4.649645,-0.405555 4.794276,-0.401335 4.898537,-0.288894 0.104261,0.11244 0.168819,0.331936 0.166405,0.704775 -0.0024,0.372839 -0.07133,0.899288 -0.113337,1.50798 -0.042,0.608691 -0.05717,1.299424 -0.05962,6.286932 -0.0024,4.987509 0.0078,14.302492 0.0131,19.127532 0.0052,4.82504 0.0055,5.223799 0.02136,5.757515 0.01583,0.533715 0.04716,1.201888 -0.01461,1.584542 -0.06177,0.382653 -0.216863,0.481002 -0.55069,0.548231 -0.333826,0.06723 -0.847031,0.103231 -5.684234,0.534399 -4.837203,0.431167 -13.998007,1.257482 -18.708064,1.66951 -4.710058,0.412027 -4.969284,0.409661 -5.377898,0.380794 -0.408614,-0.02887 -0.966657,-0.08433 -1.580385,-0.235462 -0.613727,-0.151131 -1.283182,-0.398249 -1.850677,-0.703277 -0.567495,-0.305028 -1.032864,-0.668349 -1.277007,-1.016594 -0.244143,-0.348244 -0.265993,-0.681573 -0.276606,-0.890934 -0.01061,-0.209361 -0.0099,-0.295668 -0.0092,-0.380986 -7e-4,-0.327402 -0.0014,-0.653802 -0.01399,-1.114408 -0.01259,-0.460607 -0.03724,-1.057937 -0.05307,-6.49853 -0.01583,-5.440592 -0.02285,-15.725482 -0.0248,-21.134108 -0.0019,-5.408626 0.0012,-5.940236 0.137301,-6.278918 0.136116,-0.338683 0.404838,-0.48323 0.630632,-0.569823 0.225794,-0.08659 0.408162,-0.115282 0.795729,-0.157992 0.387566,-0.04271 0.980226,-0.09948 5.633849,-0.514709 4.653623,-0.415229 13.368114,-1.188913 17.829304,-1.578042 4.461191,-0.389129 4.672069,-0.393826 4.817686,-0.389405 0.145618,0.0044 0.227359,0.01772 0.267665,0.02428 0.04031,0.0066 0.04025,0.0065 0.07558,0.05836 z"
     style="fill:#0e98b1;fill-opacity:1;fill-rule:evenodd;stroke:none;stroke-width:0.1;stroke-linecap:butt;stroke-linejoin:miter;stroke-miterlimit:4;stroke-dasharray:none;stroke-opacity:1" /><text
     id="text873"
     y="33.449856"
     x="-27.844856"
     style="font-style:normal;font-variant:normal;font-weight:normal;font-stretch:normal;font-size:11.8325px;line-height:14.7907px;font-family:'Linux Biolinum G';-inkscape-font-specification:'Linux Biolinum G';letter-spacing:0px;word-spacing:0px;fill:#000000;fill-opacity:1;stroke:none;stroke-width:0.739534px;stroke-linecap:butt;stroke-linejoin:miter;stroke-opacity:1"
     xml:space="preserve"><tspan
       style="fill:#000000;fill-opacity:1;stroke-width:0.739534px"
       y="33.449856"
       x="-27.844856"
       id="tspan871"
       sodipodi:role="line">D</tspan></text><text
     id="text877"
     y="35.207371"
     x="-16.498047"
     style="font-style:normal;font-variant:normal;font-weight:normal;font-stretch:normal;font-size:11.8325px;line-height:14.7907px;font-family:'Linux Biolinum G';-inkscape-font-specification:'Linux Biolinum G';letter-spacing:0px;word-spacing:0px;fill:#000000;fill-opacity:1;stroke:none;stroke-width:0.739534px;stroke-linecap:butt;stroke-linejoin:miter;stroke-opacity:1"
     xml:space="preserve"><tspan
       style="fill:#000000;fill-opacity:1;stroke-width:0.739534px"
       y="35.207371"
       x="-16.498047"
       id="tspan875"
       sodipodi:role="line">Ⴃ</tspan></text><path
     style="fill:url(#linearGradient951);fill-opacity:1;fill-rule:evenodd;stroke:none;stroke-width:0.1;stroke-linecap:butt;stroke-linejoin:miter;stroke-miterlimit:4;stroke-dasharray:none;stroke-opacity:1"
     d="m 27.008442,23.867023 c -0.05545,0.126318 -0.128956,0.213592 -0.169104,0.325619 -0.04015,0.112027 -0.04696,0.247906 -0.01389,0.432151 0.03307,0.184244 0.105583,0.416579 0.338296,0.66322 0.232713,0.24664 0.624814,0.507986 1.031794,0.710395 0.406979,0.202409 0.828742,0.346217 1.213361,0.449529 0.384618,0.103312 0.732105,0.166318 1.085074,0.213765 0.35297,0.04745 0.713809,0.07965 0.955196,0.08833 0.241387,0.0087 0.369034,-0.0056 0.496718,-0.01997 0,0 -0.0032,35.589903 -0.0032,35.589903 -0.1267,-0.0015 -0.252389,-0.0031 -0.59474,-0.03151 -0.34235,-0.02845 -0.900393,-0.08391 -1.514121,-0.235047 -0.613727,-0.151131 -1.283182,-0.398249 -1.850677,-0.703277 -0.567495,-0.305028 -1.032864,-0.668349 -1.277007,-1.016594 -0.244143,-0.348244 -0.265993,-0.681573 -0.276606,-0.890934 -0.01061,-0.209361 -0.0099,-0.295668 -0.0092,-0.380986 -7e-4,-0.327402 -0.0014,-0.653802 -0.01398,-1.114408 -0.01259,-0.460607 -0.03725,-1.057937 -0.05307,-6.49853 -0.01583,-5.440592 -0.02285,-15.725482 -0.0248,-21.134108 -0.0019,-5.408626 0.0012,-5.940236 0.137301,-6.278918 0.136116,-0.338683 0.404838,-0.48323 0.520211,-0.47206 0.115373,0.01117 0.07791,0.177113 0.02245,0.30343 z"
     id="path939"
     sodipodi:nodetypes="cccccccccccccccccccccc"
     inkscape:original-d="m 27.026587,23.90595 c -0.07252,0.0883 -0.146023,0.175573 -0.220543,0.26187 -0.0058,0.136902 -0.01262,0.27278 -0.02042,0.407674 0.07352,0.233348 0.146037,0.465682 0.217557,0.697029 0.393125,0.262361 0.785226,0.523707 1.176351,0.784068 0.422787,0.144817 0.84455,0.288625 1.265337,0.431441 0.348507,0.06401 0.695994,0.127016 1.042501,0.189026 0.359496,0.03299 0.720334,0.0652 1.075468,0.09598 0.127845,-0.01323 0.383052,-0.04298 0.383052,-0.04298 l -0.0032,35.589903 c 0,0 -0.252401,-0.0021 -0.380101,-0.0046 -0.557077,-0.05447 -1.115121,-0.10993 -1.674198,-0.166396 -0.668494,-0.246133 -1.337949,-0.493251 -2.008443,-0.741383 -0.464397,-0.362343 -0.929766,-0.725664 -1.396165,-1.090008 -0.02085,-0.332342 -0.0427,-0.665671 -0.06555,-1.000004 0.0017,-0.08432 0.0021,-0.255953 0.0021,-0.255953 0,0 -3.71e-4,-0.653804 -0.0021,-0.982206 -0.02359,-0.592845 -0.04818,-1.190178 -0.07376,-1.786768 -0.006,-10.284557 -0.01305,-20.569447 -0.02107,-30.856054 0.0041,-0.530638 0.0072,-1.062248 0.0094,-1.594872 0.269734,-0.143554 0.538457,-0.288101 0.8062,-0.43366 -0.03647,0.16697 -0.07394,0.332912 -0.112416,0.497893 z"
     inkscape:path-effect="#path-effect941" /><path
     id="path1148"
     style="display:inline;fill:#e9f1e4;fill-opacity:1;stroke-width:0.235356"
     d="m 44.968444,50.722813 0.03452,-1.623344 c -1.102893,0.210486 -2.08488,0.244128 -2.659557,-0.301282 -0.633536,-0.601288 -0.840033,-1.620558 -0.890728,-2.925664 l -1.24328,0.333706 1.363934,-2.637139 1.225585,1.942399 -0.906747,0.242409 c 0.700284,2.129592 1.633736,2.824418 3.119874,2.93973 l 0.02361,-1.065195 1.903067,1.011738 z m 4.360908,-15.82394 -0.0336,1.60005 c 1.06646,-0.164036 2.003962,-0.15842 2.547425,0.393408 0.594753,0.603923 0.787626,1.594937 0.834903,2.856391 l 1.15047,-0.297421 -1.263037,2.520933 -1.152794,-1.89669 0.854538,-0.219977 C 51.608121,37.772761 50.720752,37.064958 49.28691,36.899031 l -0.02299,1.050369 -1.875462,-1.067393 z m 7.944015,11.615973 c 0,0.489503 -0.0776,0.986267 -0.232894,1.490666 -0.149904,0.497941 -0.397283,0.947718 -0.742604,1.349639 -0.340502,0.40203 -0.740565,0.635684 -1.200646,0.700443 -0.421996,0.0594 -0.757592,0.07536 -1.006229,0.04773 -0.243366,-0.02846 -0.416216,-0.08257 -0.518314,-0.162332 -0.102166,-0.07981 -0.204399,-0.209868 -0.306698,-0.39022 -0.05118,0.120072 -0.09952,0.217812 -0.145038,0.29321 -0.03984,0.06834 -0.108156,0.153245 -0.204988,0.254732 -0.09119,0.100756 -0.219519,0.184765 -0.385073,0.252046 -0.165728,0.06735 -0.365978,0.117572 -0.600881,0.150636 -0.470857,0.06627 -0.885453,-0.05551 -1.243341,-0.366028 -0.352905,-0.312022 -0.610849,-0.701236 -0.773367,-1.167479 -0.156871,-0.473843 -0.235364,-0.961689 -0.235364,-1.463185 0,-0.882378 0.22375,-1.665802 0.670305,-2.348827 0.451075,-0.681805 1.064897,-1.078188 1.839568,-1.19019 v 0.33064 c -0.234868,0.05367 -0.444253,0.142123 -0.628052,0.26542 -0.17826,0.122728 -0.322164,0.276116 -0.43162,0.460143 -0.109531,0.177831 -0.201827,0.359962 -0.276856,0.546364 -0.06929,0.179441 -0.121278,0.388415 -0.155944,0.626906 -0.0289,0.231476 -0.04913,0.433406 -0.06069,0.605766 -0.01156,0.172374 -0.01734,0.362998 -0.01734,0.571863 0,0.278489 0.02023,0.563798 0.0607,0.855872 0.04045,0.285674 0.109769,0.586357 0.207916,0.901959 0.09809,0.315404 0.247985,0.563424 0.449547,0.744032 0.207053,0.173266 0.451142,0.240197 0.732093,0.201014 0.211816,-0.02954 0.391921,-0.117584 0.540425,-0.264055 0.154066,-0.153409 0.265243,-0.338475 0.333621,-0.555238 0.07404,-0.223728 0.125281,-0.437976 0.15374,-0.642795 0.02845,-0.204783 0.04267,-0.413902 0.04267,-0.627385 l 0,-2.768997 c 0,-0.125578 -0.07398,-0.251427 -0.222058,-0.377634 -0.142509,-0.133313 -0.213813,-0.266034 -0.213813,-0.398074 0,-0.213779 0.0599,-0.365624 0.179623,-0.455482 0.119635,-0.09607 0.335885,-0.162869 0.648352,-0.200386 0.141825,-0.01703 0.241026,0.02746 0.297685,0.133415 0.05664,0.105919 0.08495,0.302924 0.08495,0.591041 v 3.372849 c 0,1.290264 0.350635,1.886494 1.049556,1.789018 0.275328,-0.0384 0.510937,-0.17097 0.707005,-0.397561 0.201413,-0.227075 0.34951,-0.505678 0.444441,-0.835878 0.09488,-0.329998 0.16181,-0.643628 0.200841,-0.940984 0.03902,-0.29728 0.05853,-0.588821 0.05853,-0.874676 0,-0.279642 -0.01115,-0.532993 -0.03344,-0.760078 -0.01673,-0.227825 -0.05855,-0.46183 -0.125474,-0.702071 -0.06138,-0.247261 -0.14791,-0.454183 -0.259635,-0.620784 -0.106213,-0.167407 -0.254472,-0.301772 -0.444898,-0.403102 -0.190658,-0.107689 -0.415261,-0.161509 -0.673956,-0.161359 v -0.327861 c 0.763597,-0.07303 1.358961,0.172514 1.787997,0.73522 0.433403,0.560468 0.649652,1.270754 0.649652,2.132033 z M 45.41513,35.142274 v -0.460353 c -0.303612,0.05667 -0.704702,0.107204 -1.009644,0.134314 l -1.295471,0.07029 v 0.46365 c 0.502704,-0.03041 0.809145,0.210482 0.809145,0.643136 0,0.08951 0,0.119353 -0.06959,0.3198 l -1.271878,3.953889 -1.3951,-4.050901 c -0.05663,-0.175348 -0.07078,-0.204146 -0.07078,-0.279389 0,-0.406313 0.551253,-0.456031 0.833224,-0.481463 v -0.465316 l -1.471608,0.175864 c -0.426979,0.03796 -0.840788,0.05963 -1.269968,0.06748 v 0.469236 c 0.529162,-0.04773 0.75746,-0.03812 0.899985,0.145256 0.07121,0.08408 0.227781,0.522343 0.327336,0.79965 l -1.227321,3.777721 -1.366517,-3.915392 c -0.07224,-0.175771 -0.07224,-0.206177 -0.07224,-0.266988 0,-0.410482 0.562613,-0.461225 0.850388,-0.487181 v -0.470077 l -1.574508,0.185472 -1.35536,0.07459 v 0.474268 c 0.730069,-0.06585 0.904806,-0.03584 1.079361,0.43637 l 1.821753,5.201192 c 0.07188,0.204493 0.114989,0.321081 0.301676,0.300704 0.186473,-0.02035 0.215143,-0.114331 0.286795,-0.334064 l 1.440697,-4.421157 1.442181,4.124148 c 0.0563,0.15893 0.09851,0.274341 0.281288,0.25439 0.182577,-0.01993 0.224682,-0.159359 0.280803,-0.315252 l 1.633021,-5.065227 c 0.249777,-0.767873 0.679045,-1.000208 1.162332,-1.058669 z"
     inkscape:path-effect="#path-effect1213"
     inkscape:original-d="m 44.541601,50.975992 0.03328,-1.450846 c -1.059809,0.05662 -1.997371,-0.03024 -2.543421,-0.583224 -0.599744,-0.607374 -0.794722,-1.534879 -0.842552,-2.697666 l -1.168363,0.160746 1.282222,-2.190693 1.161354,1.854774 -0.860068,0.117469 c 0.663812,1.970651 1.553112,2.697785 2.979585,2.975883 l 0.02277,-0.952117 1.846257,1.133472 z m 4.261645,-13.828824 -0.03328,1.450845 c 1.059809,-0.05663 1.997372,0.03024 2.543421,0.583224 0.599744,0.607374 0.794723,1.53488 0.842552,2.697667 l 1.168363,-0.160746 -1.282222,2.190693 -1.161354,-1.854774 0.860068,-0.11747 C 51.07698,39.965956 50.18768,39.238823 48.761207,38.960724 l -0.02277,0.952118 -1.846257,-1.133472 z m 8.071298,11.494589 c 0,0.456145 -0.08084,0.909404 -0.242507,1.359776 -0.155898,0.444597 -0.412841,0.831455 -0.770828,1.160573 -0.352214,0.329117 -0.765055,0.493676 -1.238522,0.493676 -0.433049,0 -0.776602,-0.02887 -1.030659,-0.08661 -0.248281,-0.05774 -0.424388,-0.129915 -0.528319,-0.216524 -0.103932,-0.08661 -0.207864,-0.219412 -0.311796,-0.398406 -0.05197,0.103932 -0.101046,0.187655 -0.147237,0.251169 -0.04042,0.05774 -0.109708,0.127028 -0.207864,0.207863 -0.09238,0.08084 -0.222299,0.141464 -0.389745,0.181881 -0.167445,0.04042 -0.369535,0.06063 -0.606269,0.06063 -0.473467,0 -0.889195,-0.164559 -1.247183,-0.493676 -0.352213,-0.329118 -0.609156,-0.715976 -0.770828,-1.160573 -0.155898,-0.450372 -0.233847,-0.903631 -0.233847,-1.359776 0,-0.802585 0.222299,-1.48969 0.666897,-2.061316 0.450371,-0.571625 1.065301,-0.866099 1.84479,-0.883421 v 0.303135 c -0.236733,0.02309 -0.447484,0.08083 -0.632251,0.17322 -0.178994,0.09238 -0.323344,0.216525 -0.43305,0.372423 -0.109706,0.150123 -0.20209,0.306021 -0.277152,0.467693 -0.06929,0.155897 -0.121254,0.340665 -0.155897,0.554304 -0.02887,0.207863 -0.04908,0.389744 -0.06063,0.545641 -0.01155,0.155899 -0.01732,0.329119 -0.01732,0.51966 0,0.254056 0.02021,0.516773 0.06063,0.78815 0.04042,0.265604 0.109708,0.54853 0.207865,0.848778 0.09816,0.300247 0.248281,0.545642 0.450371,0.736184 0.207864,0.184767 0.453259,0.277151 0.736184,0.277151 0.213638,0 0.395519,-0.05774 0.545643,-0.173219 0.155897,-0.121254 0.26849,-0.277152 0.337778,-0.467694 0.07506,-0.196316 0.127028,-0.386858 0.155898,-0.571625 0.02887,-0.184768 0.0433,-0.37531 0.0433,-0.571626 v -2.546334 c 0,-0.11548 -0.07506,-0.239621 -0.225187,-0.372423 -0.144349,-0.138575 -0.216524,-0.26849 -0.216524,-0.389744 0,-0.196316 0.06063,-0.329118 0.181881,-0.398405 0.121254,-0.07506 0.340666,-0.112593 0.658235,-0.112593 0.14435,0 0.245395,0.05197 0.303135,0.155898 0.05774,0.103931 0.08661,0.288699 0.08661,0.554303 v 3.109295 c 0,1.189443 0.357988,1.784164 1.073963,1.784164 0.282926,0 0.525434,-0.09238 0.727523,-0.277151 0.207863,-0.184768 0.360874,-0.424389 0.459032,-0.718863 0.09816,-0.294473 0.167447,-0.577399 0.207864,-0.848777 0.04042,-0.271377 0.06063,-0.539868 0.06063,-0.805472 0,-0.25983 -0.01155,-0.496564 -0.03464,-0.710201 -0.01733,-0.213638 -0.06063,-0.435937 -0.129915,-0.666896 -0.06351,-0.236734 -0.15301,-0.438824 -0.268491,-0.60627 C 55.396406,46.482284 55.243395,46.340821 55.047079,46.225341 54.850764,46.104087 54.619804,46.029025 54.3542,46.000155 V 45.69702 c 0.785263,0.01733 1.400194,0.3118 1.844791,0.883421 0.450372,0.571626 0.675558,1.258731 0.675558,2.061316 z M 44.972811,37.047559 v -0.413178 c -0.293223,0.02665 -0.679743,0.03999 -0.972965,0.03999 l -1.239533,-0.03999 v 0.413178 c 0.479819,0.01333 0.773042,0.253237 0.773042,0.639758 0,0.07997 0,0.106627 -0.06664,0.279895 l -1.212876,3.412045 -1.319502,-3.718596 c -0.05332,-0.15994 -0.06664,-0.186596 -0.06664,-0.253237 0,-0.359865 0.519804,-0.359865 0.78637,-0.359865 v -0.413178 l -1.386144,0.03999 c -0.399849,0 -0.78637,-0.01333 -1.186219,-0.03999 v 0.413178 c 0.493148,0 0.706401,0.02665 0.839684,0.199925 0.06664,0.07997 0.213252,0.479818 0.306551,0.733056 l -1.146235,3.225449 -1.266188,-3.558656 c -0.06664,-0.15994 -0.06664,-0.186597 -0.06664,-0.239909 0,-0.359865 0.519804,-0.359865 0.78637,-0.359865 v -0.413178 l -1.452785,0.03999 -1.239531,-0.03999 v 0.413178 c 0.666415,0 0.826354,0.03998 0.986294,0.466491 l 1.679366,4.718218 c 0.06664,0.186597 0.106626,0.293223 0.279895,0.293223 0.173267,0 0.199924,-0.07997 0.266566,-0.266566 l 1.346157,-3.77191 1.359487,3.785238 c 0.05332,0.146612 0.0933,0.253238 0.266566,0.253238 0.173268,0 0.213254,-0.119955 0.266566,-0.253238 l 1.559412,-4.371683 c 0.239909,-0.666415 0.653087,-0.839683 1.119577,-0.853011 z"
     sodipodi:nodetypes="ccscccccccccccscccccccccsccscscccssccscccccccsscscsccssscscssssscssscccccccsscccccscccscccccccccscccccccscccsccsc" /><g
     id="g1189"
     transform="translate(-66.769578,3.6303852)"><g
       id="g1187"
       transform="matrix(0.83370144,0,0,0.83370144,8.9194751,8.0507174)"><text
         id="text1177"
         y="40.420055"
         x="32.511768"
         style="font-style:normal;font-variant:normal;font-weight:normal;font-stretch:normal;font-size:15.9869px;line-height:19.9837px;font-family:'Linux Biolinum G';-inkscape-font-specification:'Linux Biolinum G';letter-spacing:0px;word-spacing:0px;fill:#000000;fill-opacity:1;stroke:none;stroke-width:0.999185px;stroke-linecap:butt;stroke-linejoin:miter;stroke-opacity:1"
         xml:space="preserve"><tspan
           style="font-style:normal;font-variant:normal;font-weight:normal;font-stretch:normal;font-family:'Latin Modern Roman';-inkscape-font-specification:'Latin Modern Roman, ';fill:#000000;fill-opacity:1;stroke-width:0.999185px"
           y="40.420055"
           x="32.511768"
           id="tspan1175"
           sodipodi:role="line">w</tspan></text><text
         id="text1181"
         y="51.391594"
         x="48.385712"
         style="font-style:normal;font-variant:normal;font-weight:normal;font-stretch:normal;font-size:10.3886px;line-height:12.9858px;font-family:'Linux Biolinum G';-inkscape-font-specification:'Linux Biolinum G';letter-spacing:0px;word-spacing:0px;fill:#000000;fill-opacity:1;stroke:none;stroke-width:0.649289px;stroke-linecap:butt;stroke-linejoin:miter;stroke-opacity:1"
         xml:space="preserve"><tspan
           style="fill:#000000;fill-opacity:1;stroke-width:0.649289px"
           y="51.391594"
           x="48.385712"
           id="tspan1179"
           sodipodi:role="line">Ⲱ</tspan></text><path
         style="display:inline;fill:#000000;fill-opacity:1;stroke-width:0.282303"
         d="m 47.080686,34.723047 -0.03992,1.740246 c 1.271209,-0.06792 2.395787,0.03627 3.050757,0.69956 0.719375,0.728527 0.953246,1.841042 1.010616,3.23577 l 1.401417,-0.19281 -1.537987,2.627671 -1.39301,-2.224746 1.031626,-0.140901 C 49.807962,38.1041 48.741274,37.231925 47.030262,36.898354 l -0.02731,1.142037 -2.21453,-1.359566 z"
         id="path1183"
         inkscape:connector-curvature="0"
         sodipodi:nodetypes="ccsccccccccc" /><path
         sodipodi:nodetypes="ccsccccccccc"
         inkscape:connector-curvature="0"
         id="path1185"
         d="m 44.67786,49.777619 0.03992,-1.740246 c -1.271209,0.06792 -2.395787,-0.03627 -3.050757,-0.69956 -0.719375,-0.728527 -0.953246,-1.841042 -1.010616,-3.23577 l -1.401417,0.19281 1.537987,-2.627671 1.39301,2.224746 -1.031626,0.140901 c 0.796223,2.363737 1.862911,3.235912 3.573923,3.569483 l 0.02731,-1.142037 2.21453,1.359566 z"
         style="display:inline;fill:#000000;fill-opacity:1;stroke-width:0.282303" /></g></g></g><g
   inkscape:groupmode="layer"
   id="layer2"
   inkscape:label="box"
   style="display:none"
   sodipodi:insensitive="true"><path
     style="display:inline;fill:none;fill-rule:evenodd;stroke:#000000;stroke-width:0.1;stroke-linecap:butt;stroke-linejoin:miter;stroke-miterlimit:4;stroke-dasharray:none;stroke-opacity:1"
     d="m 57.343559,49.87147 c 0,0 -21.658336,2.916454 -21.658336,2.916454 0,0 0,-17.242362 0,-17.242362 0,0 21.588144,-1.916215 21.588144,-1.916215 0,0 0.07019,16.242123 0.07019,16.242123 z"
     id="path1119"
     inkscape:path-effect="#path-effect1121"
     inkscape:original-d="M 57.343559,49.87147 35.685223,52.787924 V 35.545562 l 21.588144,-1.916215 z"
     sodipodi:nodetypes="ccccc" /><path
     sodipodi:nodetypes="cc"
     inkscape:original-d="m -68.858577,24.282004 c 10.017399,-0.888324 20.048755,-1.778359 30.07897,-2.66969"
     inkscape:path-effect="#path-effect1036"
     id="path1034"
     d="m -68.858577,24.282004 c 10.01733,-0.889098 20.048659,-1.779439 30.07897,-2.66969"
     style="display:inline;fill:none;fill-rule:evenodd;stroke:#000000;stroke-width:0.1;stroke-linecap:butt;stroke-linejoin:miter;stroke-miterlimit:4;stroke-dasharray:none;stroke-opacity:1" /><path
     inkscape:original-d="m -67.822846,23.526192 c 1.717351,1.08301 5.149052,3.246031 5.149052,3.246031"
     inkscape:path-effect="#path-effect1069"
     id="path1067"
     d="m -67.822846,23.526192 c 1.717517,1.082746 3.432701,2.164021 5.149052,3.246031"
     style="display:inline;fill:none;fill-rule:evenodd;stroke:#000000;stroke-width:0.1;stroke-linecap:butt;stroke-linejoin:miter;stroke-miterlimit:4;stroke-dasharray:none;stroke-opacity:1" /><path
     id="path1108"
     d="m -67.1283,57.388361 c -0.08628,0.248799 -0.172361,0.497015 -0.04138,0.829508 0.13098,0.332494 0.477901,0.74875 0.970177,1.117848 0.492276,0.369099 1.129578,0.691495 1.84599,0.878968 0.716411,0.187474 1.512024,0.240551 2.306591,0.293559"
     style="display:inline;fill:none;fill-rule:evenodd;stroke:#000000;stroke-width:0.1;stroke-linecap:butt;stroke-linejoin:miter;stroke-miterlimit:4;stroke-dasharray:none;stroke-opacity:1"
     inkscape:original-d="m -67.1283,57.388361 c -0.08508,0.249216 -0.171159,0.497432 -0.258238,0.744648 0.347934,0.417272 0.694855,0.833528 1.040783,1.248792 0.638327,0.323409 1.275629,0.645805 1.911944,0.967207 0.796645,0.05408 1.592258,0.107158 2.386887,0.159236"
     inkscape:path-effect="#path-effect1110" /><path
     sodipodi:nodetypes="cc"
     inkscape:original-d="m -67.111258,22.423036 c 8.22e-4,11.844535 0.0011,23.688461 1.22e-4,35.531779"
     inkscape:path-effect="#path-effect1049"
     id="path1047"
     d="m -67.111258,22.423036 c 4.1e-5,11.844535 8.1e-5,23.688461 1.22e-4,35.531779"
     style="display:inline;fill:none;fill-rule:evenodd;stroke:#000000;stroke-width:0.1;stroke-linecap:butt;stroke-linejoin:miter;stroke-miterlimit:4;stroke-dasharray:none;stroke-opacity:1" /></g></svg>
